<svg xmlns="http://www.w3.org/2000/svg" width="49" height="45" viewBox="0 0 49 45">
  <g id="Facebook" transform="translate(-163 -4640)">
    <g id="Facebook-2" data-name="Facebook" transform="translate(163 4640)" fill="#fff">
      <path d="M 24.5 44.5 C 21.25469970703125 44.5 18.10705947875977 43.91651916503906 15.14453983306885 42.76576995849609 C 12.28534984588623 41.6551513671875 9.718099594116211 40.06573104858398 7.514090061187744 38.04164123535156 C 5.313119888305664 36.02033996582031 3.58558988571167 33.66762924194336 2.379479885101318 31.04884910583496 C 1.132349967956543 28.34099960327148 0.5 25.46475028991699 0.5 22.5 C 0.5 19.53524971008301 1.132349967956543 16.65900039672852 2.379479885101318 13.95114994049072 C 3.58558988571167 11.33236980438232 5.313119888305664 8.979660034179688 7.514090061187744 6.958360195159912 C 9.718099594116211 4.934269905090332 12.28534984588623 3.344850063323975 15.14453983306885 2.234230041503906 C 18.10705947875977 1.083480000495911 21.25469970703125 0.5 24.5 0.5 C 27.74530982971191 0.5 30.89294052124023 1.083480000495911 33.85546875 2.234230041503906 C 36.71464920043945 3.344850063323975 39.28190994262695 4.934269905090332 41.48590850830078 6.958360195159912 C 43.6868782043457 8.979660034179688 45.41442108154297 11.33236980438232 46.62052154541016 13.95114994049072 C 47.86764907836914 16.65900039672852 48.5 19.53524971008301 48.5 22.5 C 48.5 25.46475028991699 47.86764907836914 28.34099960327148 46.62052154541016 31.04884910583496 C 45.41442108154297 33.66762924194336 43.6868782043457 36.02033996582031 41.48590850830078 38.04164123535156 C 39.28190994262695 40.06573104858398 36.71464920043945 41.6551513671875 33.85546875 42.76576995849609 C 30.89294052124023 43.91651916503906 27.74530982971191 44.5 24.5 44.5 Z" stroke="none"/>
      <path d="M 24.5 1 C 21.31686973571777 1 18.23014068603516 1.572071075439453 15.32556915283203 2.700309753417969 C 12.52463912963867 3.788288116455078 10.01026153564453 5.344810485839844 7.852291107177734 7.326629638671875 C 5.700389862060547 9.302860260009766 4.011859893798828 11.60205078125 2.833629608154297 14.16031074523926 C 1.616920471191406 16.80209922790527 1 19.60798072814941 1 22.5 C 1 25.39201927185059 1.616920471191406 28.19790077209473 2.833629608154297 30.83969116210938 C 4.011859893798828 33.39794921875 5.700389862060547 35.69713973999023 7.852291107177734 37.67337036132813 C 10.01026153564453 39.65518951416016 12.52463912963867 41.21170806884766 15.32556915283203 42.29969024658203 C 18.23014068603516 43.42792892456055 21.31686973571777 44 24.5 44 C 27.68313026428223 44 30.76984977722168 43.42792892456055 33.67441940307617 42.29969024658203 C 36.47534942626953 41.21170806884766 38.98973083496094 39.65518951416016 41.14770889282227 37.67337036132813 C 43.29961013793945 35.69713973999023 44.98812866210938 33.39794921875 46.1663703918457 30.83969116210938 C 47.38307952880859 28.19790077209473 48 25.39201927185059 48 22.5 C 48 19.60798072814941 47.38307952880859 16.80209922790527 46.1663703918457 14.16031074523926 C 44.98812866210938 11.60205078125 43.29961013793945 9.302860260009766 41.14770889282227 7.326629638671875 C 38.98973083496094 5.344810485839844 36.47534942626953 3.788288116455078 33.67441940307617 2.700309753417969 C 30.76984977722168 1.572071075439453 27.68313026428223 1 24.5 1 M 24.5 0 C 38.03096771240234 0 49 10.07358932495117 49 22.5 C 49 34.92641067504883 38.03096771240234 45 24.5 45 C 10.96902084350586 45 0 34.92641067504883 0 22.5 C 0 10.07358932495117 10.96902084350586 0 24.5 0 Z" stroke="none" fill="#707070"/>
    </g>
    <path id="Icone-facebook" d="M12.276,31.6a.4.4,0,0,0,.4.4h5.745a.4.4,0,0,0,.4-.4V15.874h4.165a.4.4,0,0,0,.4-.37l.4-4.736a.4.4,0,0,0-.4-.437H18.827V6.97a1.426,1.426,0,0,1,1.426-1.427h3.21a.4.4,0,0,0,.4-.4V.4a.4.4,0,0,0-.4-.4H18.04a5.763,5.763,0,0,0-5.763,5.763v4.568H9.4a.4.4,0,0,0-.4.4v4.738a.4.4,0,0,0,.4.4h2.873Z" transform="translate(171 4647)" fill="#4f4f4f" fill-rule="evenodd"/>
  </g>
</svg>
