<svg xmlns="http://www.w3.org/2000/svg" width="49" height="45" viewBox="0 0 49 45">
  <g id="Github" transform="translate(-342 -4640)">
    <g id="Icone-Github" transform="translate(275.8 4442.6)">
      <path id="Caminho_9" data-name="Caminho 9" d="M84.511,84.985c-.513.043-.948.086-1.384.123a7.213,7.213,0,0,1-5.729-1.7,13.589,13.589,0,0,1-1.127-1.486c-.614-.761-1.244-1.517-1.92-2.247a5.824,5.824,0,0,0-.948-.614c-.1-.068-.132-.2-.2-.3a2.125,2.125,0,0,1,.412-.129,4.2,4.2,0,0,1,3.926,1.695,5.681,5.681,0,0,0,4.835,2.26,10.667,10.667,0,0,0,1.858-.276.407.407,0,0,0,.272-.27,4.765,4.765,0,0,1,.583-1.861c.14-.215.3-.418.466-.639-.63-.1-1.236-.172-1.835-.289-2.76-.553-5.037-1.646-6.359-3.721a5.227,5.227,0,0,1-.84-2.591,14.079,14.079,0,0,1,.319-4.188,4.494,4.494,0,0,1,1.656-2.573.361.361,0,0,0,.132-.522,4.392,4.392,0,0,1-.132-3.488c.093-.252.179-.5.272-.768a7.579,7.579,0,0,1,4.586,2.714,8.847,8.847,0,0,1,4.1-.854,28.182,28.182,0,0,1,5.037.147,6.519,6.519,0,0,1,2.254.651c.731-.6,1.415-1.2,2.169-1.744a5.242,5.242,0,0,1,2.153-.86c.225-.043.342-.025.435.172a4.416,4.416,0,0,1,.031,4.065.313.313,0,0,0,.109.461,4.527,4.527,0,0,1,1.8,3.1,23.114,23.114,0,0,1,.241,3.273,5.748,5.748,0,0,1-1.819,4.2,8.9,8.9,0,0,1-3.273,1.953,15.974,15.974,0,0,1-3.863.841c-.031.006-.062.025-.117.043a4.688,4.688,0,0,1,1.049,3.414c-.023,1.762-.016,3.518,0,5.281,0,.276-.1.344-.443.344q-4.139-.018-8.279,0c-.342,0-.451-.086-.451-.35.016-.952.008-1.9.008-2.855A3.585,3.585,0,0,0,84.511,84.985Z" transform="translate(2 145)" fill="#4f4f4f"/>
    </g>
    <g id="Github-2" data-name="Github" transform="translate(342 4640)" fill="#fff" style="mix-blend-mode: darken;isolation: isolate">
      <path d="M 24.5 44.5 C 21.25469970703125 44.5 18.10705947875977 43.91651916503906 15.14453983306885 42.76576995849609 C 12.28534984588623 41.6551513671875 9.718099594116211 40.06573104858398 7.514090061187744 38.04164123535156 C 5.313119888305664 36.02033996582031 3.58558988571167 33.66762924194336 2.379479885101318 31.04884910583496 C 1.132349967956543 28.34099960327148 0.5 25.46475028991699 0.5 22.5 C 0.5 19.53524971008301 1.132349967956543 16.65900039672852 2.379479885101318 13.95114994049072 C 3.58558988571167 11.33236980438232 5.313119888305664 8.979660034179688 7.514090061187744 6.958360195159912 C 9.718099594116211 4.934269905090332 12.28534984588623 3.344850063323975 15.14453983306885 2.234230041503906 C 18.10705947875977 1.083480000495911 21.25469970703125 0.5 24.5 0.5 C 27.74530982971191 0.5 30.89294052124023 1.083480000495911 33.85546875 2.234230041503906 C 36.71464920043945 3.344850063323975 39.28190994262695 4.934269905090332 41.48590850830078 6.958360195159912 C 43.6868782043457 8.979660034179688 45.41442108154297 11.33236980438232 46.62052154541016 13.95114994049072 C 47.86764907836914 16.65900039672852 48.5 19.53524971008301 48.5 22.5 C 48.5 25.46475028991699 47.86764907836914 28.34099960327148 46.62052154541016 31.04884910583496 C 45.41442108154297 33.66762924194336 43.6868782043457 36.02033996582031 41.48590850830078 38.04164123535156 C 39.28190994262695 40.06573104858398 36.71464920043945 41.6551513671875 33.85546875 42.76576995849609 C 30.89294052124023 43.91651916503906 27.74530982971191 44.5 24.5 44.5 Z" stroke="none"/>
      <path d="M 24.5 1 C 21.31686973571777 1 18.23014068603516 1.572071075439453 15.32556915283203 2.700309753417969 C 12.52463912963867 3.788288116455078 10.01026153564453 5.344810485839844 7.852291107177734 7.326629638671875 C 5.700389862060547 9.302860260009766 4.011859893798828 11.60205078125 2.833629608154297 14.16031074523926 C 1.616920471191406 16.80209922790527 1 19.60798072814941 1 22.5 C 1 25.39201927185059 1.616920471191406 28.19790077209473 2.833629608154297 30.83969116210938 C 4.011859893798828 33.39794921875 5.700389862060547 35.69713973999023 7.852291107177734 37.67337036132813 C 10.01026153564453 39.65518951416016 12.52463912963867 41.21170806884766 15.32556915283203 42.29969024658203 C 18.23014068603516 43.42792892456055 21.31686973571777 44 24.5 44 C 27.68313026428223 44 30.76984977722168 43.42792892456055 33.67441940307617 42.29969024658203 C 36.47534942626953 41.21170806884766 38.98973083496094 39.65518951416016 41.14770889282227 37.67337036132813 C 43.29961013793945 35.69713973999023 44.98812866210938 33.39794921875 46.1663703918457 30.83969116210938 C 47.38307952880859 28.19790077209473 48 25.39201927185059 48 22.5 C 48 19.60798072814941 47.38307952880859 16.80209922790527 46.1663703918457 14.16031074523926 C 44.98812866210938 11.60205078125 43.29961013793945 9.302860260009766 41.14770889282227 7.326629638671875 C 38.98973083496094 5.344810485839844 36.47534942626953 3.788288116455078 33.67441940307617 2.700309753417969 C 30.76984977722168 1.572071075439453 27.68313026428223 1 24.5 1 M 24.5 0 C 38.03096771240234 0 49 10.07358932495117 49 22.5 C 49 34.92641067504883 38.03096771240234 45 24.5 45 C 10.96902084350586 45 0 34.92641067504883 0 22.5 C 0 10.07358932495117 10.96902084350586 0 24.5 0 Z" stroke="none" fill="#707070"/>
    </g>
  </g>
</svg>
